<svg width="50" height="51" viewBox="0 0 50 51" fill="none" xmlns="http://www.w3.org/2000/svg">
<path d="M49.554 47.8014L42.2121 40.5047V12.4337L38.7447 6.05665C38.4889 5.57045 38.1052 5.16338 37.6349 4.8794C37.1646 4.59542 36.6257 4.44532 36.0763 4.44532C35.5269 4.44532 34.988 4.59542 34.5177 4.8794C34.0474 5.16338 33.6637 5.57045 33.4079 6.05665L30.1515 12.4488V28.5044L2.57798 1.06657C2.36711 0.853958 2.09771 0.708958 1.80411 0.650058C1.51052 0.591157 1.20603 0.621025 0.929474 0.735852C0.652918 0.850679 0.416823 1.04526 0.25129 1.2948C0.0857562 1.54433 -0.00171589 1.83751 2.55036e-05 2.13695V14.3182H3.27146V16.7303H2.55036e-05V26.3788H3.27146V28.7909H2.55036e-05V38.8163H3.27146V41.2284H2.55036e-05V48.8718C2.55036e-05 49.2716 0.158859 49.6551 0.441584 49.9378C0.724309 50.2205 1.10777 50.3794 1.5076 50.3794H48.4837C48.7831 50.3811 49.0763 50.2936 49.3258 50.1281C49.5753 49.9626 49.7699 49.7265 49.8848 49.4499C49.9996 49.1734 50.0294 48.8689 49.9705 48.5753C49.9116 48.2817 49.7666 48.0123 49.554 47.8014V47.8014ZM12.0606 38.4394V24.7807L25.7343 38.4394H12.0606ZM39.197 41.6204H33.1667V37.9569H39.197V41.6204ZM39.197 35.5901H33.1667V13.1875L36.0914 7.50392L39.197 13.2026V35.5901Z" fill="black"/>
</svg>
